<svg width="35" height="35" viewBox="0 0 35 35" fill="none" xmlns="http://www.w3.org/2000/svg">
<path d="M17.4998 33.1771C14.3992 33.1771 11.3682 32.2576 8.79012 30.535C6.21204 28.8124 4.20267 26.364 3.01611 23.4994C1.82955 20.6347 1.51909 17.4826 2.12399 14.4416C2.7289 11.4005 4.22199 8.6071 6.41447 6.41463C8.60695 4.22215 11.4003 2.72905 14.4414 2.12414C17.4825 1.51924 20.6346 1.8297 23.4992 3.01626C26.3638 4.20282 28.8122 6.21219 30.5349 8.79028C32.2575 11.3684 33.1769 14.3994 33.1769 17.5C33.1731 21.6566 31.5201 25.6419 28.581 28.5811C25.6418 31.5203 21.6565 33.1732 17.4998 33.1771ZM17.4998 4.01041C14.8319 4.01041 12.2238 4.80156 10.0054 6.28382C7.78708 7.76607 6.05809 9.87286 5.03709 12.3378C4.0161 14.8027 3.74896 17.515 4.26946 20.1317C4.78996 22.7484 6.07472 25.152 7.96127 27.0386C9.84782 28.9251 12.2514 30.2099 14.8682 30.7304C17.4849 31.2509 20.1972 30.9837 22.6621 29.9627C25.127 28.9418 27.2338 27.2128 28.716 24.9944C30.1983 22.7761 30.9894 20.168 30.9894 17.5C30.9856 13.9235 29.5631 10.4946 27.0342 7.96569C24.5052 5.43673 21.0763 4.01427 17.4998 4.01041Z" fill="white"/>
<path d="M15.5895 25.1271C14.816 25.1271 14.0741 24.8198 13.5271 24.2728C12.9801 23.7258 12.6729 22.984 12.6729 22.2104V13.4604C12.6823 12.9348 12.8337 12.4215 13.1109 11.9748C13.3882 11.5281 13.781 11.1647 14.2479 10.9229C14.718 10.6833 15.2444 10.5758 15.7709 10.6117C16.2973 10.6477 16.8042 10.8258 17.2374 11.1271L23.4937 15.5021C23.8672 15.7725 24.1712 16.1276 24.3809 16.5383C24.5906 16.949 24.6999 17.4035 24.6999 17.8646C24.6999 18.3257 24.5906 18.7802 24.3809 19.1909C24.1712 19.6016 23.8672 19.9567 23.4937 20.2271L17.2374 24.6021C16.7538 24.9397 16.1793 25.1227 15.5895 25.1271ZM15.5895 12.7896C15.4785 12.7896 15.3688 12.8146 15.2687 12.8625C15.1537 12.9218 15.0574 13.0118 14.9905 13.1225C14.9236 13.2332 14.8886 13.3602 14.8895 13.4896V22.2396C14.8886 22.3689 14.9236 22.496 14.9905 22.6067C15.0574 22.7174 15.1537 22.8074 15.2687 22.8667C15.3744 22.9375 15.4987 22.9754 15.626 22.9754C15.7532 22.9754 15.8776 22.9375 15.9833 22.8667L22.2395 18.4917C22.3328 18.429 22.4092 18.3443 22.462 18.2451C22.5148 18.1459 22.5424 18.0353 22.5424 17.9229C22.5424 17.8106 22.5148 17.6999 22.462 17.6007C22.4092 17.5016 22.3328 17.4169 22.2395 17.3542L16.0416 12.9208C15.913 12.8214 15.7514 12.7745 15.5895 12.7896Z" fill="white"/>
</svg>
